# xmcd CD database file
#
# Track frame offsets:
#	150
#	24160
#	41100
#	61660
#	72330
#	95020
#	99047
#	144692
#	173975
#	198340
#	214555
#	235360
#	239850
#
# Disc length: 3469 seconds
#
# Revision: 1
# Processed by: cddbd v1.5.2PL0 Copyright (c) Steve Scherf et al.
# Submitted via: CDex 1.51
#
DISCID=b60d8b0d
DTITLE=Muddy Waters - Live - 1971
DYEAR=1900
DGENRE=Blues
TTITLE0=Honey Bee
TTITLE1=Hoochie Coochie Man
TTITLE2=Walking Thru The Park
TTITLE3=Trouble No More
TTITLE4=Just To Be With You
TTITLE5=Muddy's Introduction To "She's 19 Years Old"
TTITLE6=She's 19 Years Old
TTITLE7=Long Distance Call
TTITLE8=Manish Boy
TTITLE9=Crawlin' Kingsnake
TTITLE10=Got My Mojo Working
TTITLE11=Hold It
TTITLE12=Interview with Muddy (On The Road with Big Mama Thornton)
EXTD=
EXTT0=
EXTT1=
EXTT2=
EXTT3=
EXTT4=
EXTT5=
EXTT6=
EXTT7=
EXTT8=
EXTT9=
EXTT10=
EXTT11=
EXTT12=
PLAYORDER=
